<svg xmlns="http://www.w3.org/2000/svg" width="33" height="33" viewBox="0 0 33 33">
    <g fill="none" fill-rule="evenodd" stroke="#FFF" transform="translate(1 1)">
        <circle cx="15.5" cy="15.5" r="15.5"/>
        <g fill="#FFF" fill-rule="nonzero" stroke-width=".25">
            <path d="M24 14.392c0-.25-.102-.49-.282-.665a.96.96 0 0 0-.678-.276h-1.526l-.024-.068a6.47 6.47 0 0 0-.26-.62l-.031-.065 1.082-1.083a.958.958 0 0 0 .284-.67.927.927 0 0 0-.272-.67L20.73 8.707a.937.937 0 0 0-.661-.262h-.008c-.253 0-.495.1-.675.276l-1.081 1.078-.066-.032a6.416 6.416 0 0 0-.622-.26l-.068-.024V7.96a.96.96 0 0 0-.276-.678.926.926 0 0 0-.665-.281h-2.213a.951.951 0 0 0-.941.959v1.524l-.069.024c-.211.077-.42.164-.622.261l-.065.032-1.081-1.08c-.36-.362-.988-.368-1.343-.013l-1.566 1.565a.951.951 0 0 0 .013 1.344L9.8 12.698l-.03.066a6.459 6.459 0 0 0-.26.62l-.024.067H7.959a.951.951 0 0 0-.959.94v2.213a.952.952 0 0 0 .959.941H9.49l.024.068c.075.21.162.416.259.617l.031.065-1.085 1.086a.957.957 0 0 0-.285.67.925.925 0 0 0 .272.67l1.566 1.568a.94.94 0 0 0 .664.262h.006a.97.97 0 0 0 .675-.276l1.086-1.084.066.032c.2.096.405.182.614.257l.068.024v1.538a.95.95 0 0 0 .942.958h2.212a.951.951 0 0 0 .942-.958v-1.538l.068-.024c.21-.075.414-.16.614-.257l.066-.032 1.088 1.088a.97.97 0 0 0 .675.274h.008a.935.935 0 0 0 .661-.262l1.565-1.564a.926.926 0 0 0 .272-.67.962.962 0 0 0-.284-.673l-1.086-1.089.032-.065c.096-.201.182-.407.258-.617l.024-.068h1.532a.951.951 0 0 0 .959-.941v-2.212zm-.408 2.212a.542.542 0 0 1-.55.533H21.36a.204.204 0 0 0-.197.143c-.106.331-.24.652-.402.96a.203.203 0 0 0 .036.24l1.192 1.191a.552.552 0 0 1 .164.387.52.52 0 0 1-.152.378L20.438 22a.557.557 0 0 1-.765-.012l-1.192-1.191a.204.204 0 0 0-.24-.037 5.979 5.979 0 0 1-.958.4.203.203 0 0 0-.144.196v1.683a.541.541 0 0 1-.532.55h-2.212a.542.542 0 0 1-.534-.552v-1.683a.203.203 0 0 0-.143-.195c-.33-.106-.651-.24-.958-.402a.204.204 0 0 0-.24.04l-1.193 1.193a.56.56 0 0 1-.766.01l-1.564-1.564a.52.52 0 0 1-.152-.378.552.552 0 0 1 .166-.387l1.191-1.192a.203.203 0 0 0 .037-.239 5.889 5.889 0 0 1-.402-.96.207.207 0 0 0-.197-.143H7.959a.542.542 0 0 1-.55-.533v-2.212a.542.542 0 0 1 .55-.533h1.676c.09.001.171-.057.198-.144a5.9 5.9 0 0 1 .4-.963.203.203 0 0 0-.036-.239L9.01 11.325a.555.555 0 0 1-.166-.383.52.52 0 0 1 .152-.382l1.565-1.564c.2-.2.558-.197.765.012l1.186 1.185c.063.063.16.078.24.037.31-.163.632-.298.965-.404a.203.203 0 0 0 .144-.197V7.96c-.001-.148.057-.29.161-.395a.523.523 0 0 1 .371-.154h2.213c.298.005.537.25.532.55V9.63c-.001.09.057.17.143.197.334.106.657.242.966.404.08.042.177.027.24-.036l1.186-1.186a.55.55 0 0 1 .765-.012l1.565 1.564a.542.542 0 0 1-.012.765l-1.188 1.188a.204.204 0 0 0-.037.24c.163.308.298.63.403.963a.203.203 0 0 0 .195.144h1.677a.542.542 0 0 1 .55.532v2.21z"/>
            <path d="M15.5 11.804a3.696 3.696 0 1 0 0 7.392 3.696 3.696 0 0 0 0-7.392zm0 6.962a3.266 3.266 0 1 1 0-6.532 3.266 3.266 0 0 1 0 6.532z"/>
        </g>
    </g>
</svg>
