<svg xmlns="http://www.w3.org/2000/svg" width="25" height="25" viewBox="0 0 25 25">
    <g fill="none" fill-rule="evenodd" stroke="#326EC9" transform="translate(1 1)">
        <path stroke-width="1.6" d="M11.2 0H0v11.2c0 6.188 5.012 11.2 11.2 11.2s11.2-5.012 11.2-11.2S17.388 0 11.2 0"/>
        <path fill="#326EC9" fill-rule="nonzero" stroke-width=".5" d="M11.014 16.898h-.054a.424.424 0 0 1-.283-.095.337.337 0 0 1-.125-.247v-7.56a.337.337 0 0 1 .125-.245.424.424 0 0 1 .283-.096h.054a.424.424 0 0 1 .284.096.337.337 0 0 1 .125.246v7.56a.337.337 0 0 1-.125.246.424.424 0 0 1-.284.095z"/>
        <circle cx="10.987" cy="5.357" r="1" fill="#326EC9" fill-rule="nonzero" stroke-width=".5"/>
    </g>
</svg>
