<svg xmlns="http://www.w3.org/2000/svg" width="25" height="26" viewBox="0 0 25 26">
    <g fill="#41505B" fill-rule="nonzero" stroke="#41505B" stroke-width=".5" transform="translate(.5 1)">
        <path d="M12.014 17.898h-.054a.424.424 0 0 1-.283-.095.337.337 0 0 1-.125-.247v-7.56a.337.337 0 0 1 .125-.245.424.424 0 0 1 .283-.096h.054a.424.424 0 0 1 .284.096.337.337 0 0 1 .125.246v7.56a.337.337 0 0 1-.125.246.424.424 0 0 1-.284.095z"/>
        <circle cx="11.987" cy="6.357" r="1"/>
        <path d="M11.987 0C5.377 0 0 5.378 0 11.987c0 6.61 5.378 11.987 11.987 11.987 6.61 0 11.987-5.377 11.987-11.987S18.597 0 11.987 0zm7.88 19.868c-4.36 4.305-11.378 4.283-15.71-.05C-.176 15.485-.2 8.467 4.107 4.107c4.36-4.306 11.378-4.283 15.71.05 4.334 4.332 4.356 11.35.05 15.71z"/>
    </g>
</svg>
