<svg xmlns="http://www.w3.org/2000/svg" width="33" height="33" viewBox="0 0 33 33">
    <g fill="none" fill-rule="evenodd" stroke="#FFF" transform="translate(1 1)">
        <circle cx="15.5" cy="15.5" r="15.5"/>
        <path fill="#FFF" fill-rule="nonzero" stroke-width=".25" d="M17.77 15.614c.088-.068.177-.132.272-.201.418-.303.85-.616 1.22-1.12.477-.65.72-1.541.72-2.65 0-1.123-.521-2.214-1.428-2.991a4.705 4.705 0 0 0-3.06-1.133c-2.123 0-4.001 1.43-4.466 3.399v.006a.41.41 0 0 0 .05.29c.045.09.122.158.214.188a.35.35 0 0 0 .275-.057.386.386 0 0 0 .175-.23c.165-.702.637-1.406 1.295-1.932a3.962 3.962 0 0 1 2.458-.885c.931 0 1.904.358 2.604.957.75.643 1.146 1.469 1.146 2.387 0 .994-.164 1.623-.567 2.172-.264.36-.618.622-1.065.954l-.274.205c-.513.388-1.096.897-1.52 1.73-.46.904-.683 2.099-.683 3.651V20.405a.394.394 0 0 0 .179.35.35.35 0 0 0 .376 0 .394.394 0 0 0 .178-.35l-.002-.03v-.02c0-1.41.197-2.484.602-3.283.359-.71.82-1.095 1.3-1.458z"/>
        <ellipse cx="15.501" cy="23.012" fill="#FFF" fill-rule="nonzero" stroke-width=".25" rx="1" ry="1"/>
    </g>
</svg>
