<svg xmlns="http://www.w3.org/2000/svg" width="26" height="26" viewBox="0 0 26 26">
    <g fill="#FFF" fill-rule="nonzero" stroke="#FFF" transform="translate(1 1)">
        <path stroke-width=".5" d="M11.949 5.898H12c.23 0 .572.436.572.652l-.156 8.403a.404.404 0 0 1-.416.392h-.051a.404.404 0 0 1-.416-.392l-.156-8.403c-.003-.218.34-.652.572-.652z"/>
        <circle cx="11.983" cy="18.387" r="1" stroke-width=".5"/>
        <path stroke-width=".25" d="M11.987 0c6.61 0 11.987 5.378 11.987 11.987 0 6.61-5.377 11.987-11.987 11.987S0 18.597 0 11.987 5.378 0 11.987 0zm-7.88 19.868c4.36 4.305 11.378 4.283 15.71-.05 4.334-4.333 4.356-11.351.05-15.711C15.508-.2 8.49-.176 4.158 4.157c-4.333 4.332-4.356 11.35-.05 15.71z"/>
    </g>
</svg>
