<svg xmlns="http://www.w3.org/2000/svg" width="33" height="33" viewBox="0 0 33 33">
    <g fill="none" fill-rule="evenodd" stroke="#FFF" transform="translate(1 1)">
        <circle cx="15.5" cy="15.5" r="15.5"/>
        <path fill="#FFF" fill-rule="nonzero" stroke-width=".25" d="M7.11 23.891a2.095 2.095 0 0 0 2.953 0l7.352-7.353.085.031c.92.34 1.916.415 2.876.217a5.132 5.132 0 0 0 2.6-1.403 5.216 5.216 0 0 0 1.186-5.531.304.304 0 0 0-.5-.11l-2.533 2.533a1.701 1.701 0 1 1-2.406-2.406l2.534-2.534a.305.305 0 0 0-.11-.501 5.215 5.215 0 0 0-1.855-.334 5.193 5.193 0 0 0-3.676 1.521 5.135 5.135 0 0 0-1.403 2.6 5.244 5.244 0 0 0 .217 2.877l.031.085-7.351 7.353a2.094 2.094 0 0 0 0 2.955zm.434-2.52l7.483-7.485a.302.302 0 0 0 .061-.337 4.598 4.598 0 0 1 4.574-6.43c.116.013.231.036.343.07.063.017.12.033.181.044l.26.052-2.148 2.15a2.311 2.311 0 0 0 3.265 3.267l2.15-2.15.05.259c.304 1.526-.15 3.073-1.214 4.137a4.6 4.6 0 0 1-5.097.963.302.302 0 0 0-.339.062L9.63 23.457a1.475 1.475 0 1 1-2.085-2.086z"/>
    </g>
</svg>
